<?xml version="1.0" encoding="UTF-8"?>
<!-- Based on code from https://www.iconpacks.net/free-icon/information-348.html -->
<svg width="50" height="50" xmlns="http://www.w3.org/2000/svg">   
    <g style="stroke: none; stroke-width: 0; stroke-dasharray: none; stroke-linecap: butt; stroke-linejoin: miter; stroke-miterlimit: 10; fill: none; fill-rule: nonzero; opacity: 1;" transform="translate(0 2.5) scale(0.5,0.5)" >
        <path d="M 49.083 71.489 l 5.776 -21.96 l 4.186 -15.247 c 3.497 -16.18 -32.704 -2.439 -38.002 1.695 l 0.425 4.853 c 4.824 -3.395 23.091 -7.744 19.449 4.275 l -1.634 6.135 l 0 0 l -8.329 31.071 c -3.497 16.18 32.704 2.439 38.002 -1.695 l -0.425 -4.853 C 63.708 79.159 45.441 83.508 49.083 71.489 z" style="stroke: none; stroke-width: 1; stroke-dasharray: none; stroke-linecap: butt; stroke-linejoin: miter; stroke-miterlimit: 10; fill: rgb(0,0,0); fill-rule: nonzero; opacity: 1;" transform=" matrix(1 0 0 1 0 0) " stroke-linecap="round" />
        <circle cx="53.871" cy="11.201" r="11.201" style="stroke: none; stroke-width: 1; stroke-dasharray: none; stroke-linecap: butt; stroke-linejoin: miter; stroke-miterlimit: 10; fill: rgb(0,0,0); fill-rule: nonzero; opacity: 1;" transform="  matrix(1 0 0 1 0 0) "/>
    </g>
</svg>